<svg width="24" height="24" viewBox="0 0 24 24" fill="none" xmlns="http://www.w3.org/2000/svg">
<path d="M7.29304 12.7072L11.293 16.7072C11.4806 16.8947 11.7349 17 12 17C12.2652 17 12.5195 16.8947 12.707 16.7072L16.707 12.7072C16.8892 12.5186 16.99 12.266 16.9877 12.0038C16.9854 11.7416 16.8803 11.4908 16.6949 11.3054C16.5095 11.12 16.2586 11.0148 15.9964 11.0125C15.7342 11.0103 15.4816 11.1111 15.293 11.2932L13 13.5862V8.00021C13 7.735 12.8947 7.48064 12.7071 7.29311C12.5196 7.10557 12.2653 7.00021 12 7.00021C11.7348 7.00021 11.4805 7.10557 11.2929 7.29311C11.1054 7.48064 11 7.735 11 8.00021V13.5862L8.70704 11.2932C8.51844 11.1111 8.26584 11.0103 8.00364 11.0125C7.74144 11.0148 7.49063 11.12 7.30522 11.3054C7.11981 11.4908 7.01465 11.7416 7.01237 12.0038C7.01009 12.266 7.11088 12.5186 7.29304 12.7072Z" fill="black"/>
<path d="M1 12C1 5.925 5.925 1 12 1C18.075 1 23 5.925 23 12C23 18.075 18.075 23 12 23C5.925 23 1 18.075 1 12ZM12 3C10.8181 3 9.64778 3.23279 8.55585 3.68508C7.46392 4.13738 6.47177 4.80031 5.63604 5.63604C4.80031 6.47177 4.13738 7.46392 3.68508 8.55585C3.23279 9.64778 3 10.8181 3 12C3 13.1819 3.23279 14.3522 3.68508 15.4442C4.13738 16.5361 4.80031 17.5282 5.63604 18.364C6.47177 19.1997 7.46392 19.8626 8.55585 20.3149C9.64778 20.7672 10.8181 21 12 21C14.3869 21 16.6761 20.0518 18.364 18.364C20.0518 16.6761 21 14.3869 21 12C21 9.61305 20.0518 7.32387 18.364 5.63604C16.6761 3.94821 14.3869 3 12 3Z" fill="black"/>
</svg>
