<svg width="24" height="24" viewBox="0 0 24 24" fill="none" xmlns="http://www.w3.org/2000/svg">
<path d="M7.29304 11.293L11.293 7.293C11.4806 7.10553 11.7349 7.00021 12 7.00021C12.2652 7.00021 12.5195 7.10553 12.707 7.293L16.707 11.293C16.8892 11.4816 16.99 11.7342 16.9877 11.9964C16.9854 12.2586 16.8803 12.5094 16.6949 12.6948C16.5095 12.8802 16.2586 12.9854 15.9964 12.9877C15.7342 12.99 15.4816 12.8892 15.293 12.707L13 10.414V16C13 16.2652 12.8947 16.5196 12.7071 16.7071C12.5196 16.8946 12.2653 17 12 17C11.7348 17 11.4805 16.8946 11.2929 16.7071C11.1054 16.5196 11 16.2652 11 16V10.414L8.70704 12.707C8.51844 12.8892 8.26584 12.99 8.00364 12.9877C7.74144 12.9854 7.49063 12.8802 7.30522 12.6948C7.11981 12.5094 7.01465 12.2586 7.01237 11.9964C7.01009 11.7342 7.11088 11.4816 7.29304 11.293Z" fill="black"/>
<path d="M1 12C1 5.925 5.925 1 12 1C18.075 1 23 5.925 23 12C23 18.075 18.075 23 12 23C5.925 23 1 18.075 1 12ZM12 3C10.8181 3 9.64778 3.23279 8.55585 3.68508C7.46392 4.13738 6.47177 4.80031 5.63604 5.63604C4.80031 6.47177 4.13738 7.46392 3.68508 8.55585C3.23279 9.64778 3 10.8181 3 12C3 13.1819 3.23279 14.3522 3.68508 15.4442C4.13738 16.5361 4.80031 17.5282 5.63604 18.364C6.47177 19.1997 7.46392 19.8626 8.55585 20.3149C9.64778 20.7672 10.8181 21 12 21C14.3869 21 16.6761 20.0518 18.364 18.364C20.0518 16.6761 21 14.3869 21 12C21 9.61305 20.0518 7.32387 18.364 5.63604C16.6761 3.94821 14.3869 3 12 3Z" fill="black"/>
</svg>
