<svg width="24" height="24" viewBox="0 0 24 24" fill="none" xmlns="http://www.w3.org/2000/svg">
<path d="M8 3C7.73485 3.00001 7.48049 3.1055 7.29297 3.29297L3.29297 7.29297C3.10551 7.48049 3 7.73484 3 8C3 8.26516 3.10551 8.51951 3.29297 8.70703L7.29297 12.707C7.48149 12.8891 7.73402 12.9895 7.99609 12.9873C8.25829 12.985 8.5099 12.8797 8.69531 12.6943C8.88043 12.509 8.98503 12.2581 8.9873 11.9961C8.9895 11.734 8.88912 11.4815 8.70703 11.293L6.41406 9H15C17.7614 9 20 11.2386 20 14C20 16.7614 17.7614 19 15 19H5C4.44771 19 4 19.4477 4 20C4 20.5523 4.44771 21 5 21H15C18.866 21 22 17.866 22 14C22 10.134 18.866 7 15 7H6.41406L8.70703 4.70703C8.8945 4.5195 9 4.26516 9 4C9 3.73484 8.8945 3.4805 8.70703 3.29297C8.51951 3.10551 8.26516 3 8 3Z" fill="black"/>
</svg>
