<svg width="24" height="24" viewBox="0 0 24 24" fill="none" xmlns="http://www.w3.org/2000/svg">
<path d="M20.707 5.293C20.8944 5.48053 20.9997 5.73484 20.9997 6C20.9997 6.26516 20.8944 6.51947 20.707 6.707L9.70696 17.707C9.51943 17.8945 9.26512 17.9998 8.99996 17.9998C8.7348 17.9998 8.48049 17.8945 8.29296 17.707L3.29296 12.707C3.19745 12.6148 3.12127 12.5044 3.06886 12.3824C3.01645 12.2604 2.98886 12.1292 2.98771 11.9964C2.98655 11.8636 3.01186 11.7319 3.06214 11.609C3.11242 11.4861 3.18667 11.3745 3.28056 11.2806C3.37446 11.1867 3.48611 11.1125 3.60901 11.0622C3.7319 11.0119 3.86358 10.9866 3.99636 10.9877C4.12914 10.9889 4.26036 11.0165 4.38236 11.0689C4.50437 11.1213 4.61471 11.1975 4.70696 11.293L8.99996 15.586L19.293 5.293C19.4805 5.10553 19.7348 5.00021 20 5.00021C20.2651 5.00021 20.5194 5.10553 20.707 5.293Z" fill="black"/>
</svg>
