<svg width="24" height="24" viewBox="0 0 24 24" fill="none" xmlns="http://www.w3.org/2000/svg">
<path d="M5.29303 5.29299C5.48056 5.10552 5.73487 5.0002 6.00003 5.0002C6.26519 5.0002 6.5195 5.10552 6.70703 5.29299L12 10.586L17.293 5.29299C17.3853 5.19748 17.4956 5.1213 17.6176 5.06889C17.7396 5.01648 17.8708 4.98889 18.0036 4.98774C18.1364 4.98659 18.2681 5.01189 18.391 5.06217C18.5139 5.11245 18.6255 5.1867 18.7194 5.28059C18.8133 5.37449 18.8876 5.48614 18.9379 5.60904C18.9881 5.73193 19.0134 5.86361 19.0123 5.99639C19.0111 6.12917 18.9835 6.26039 18.9311 6.38239C18.8787 6.5044 18.8025 6.61474 18.707 6.70699L13.414 12L18.707 17.293C18.8892 17.4816 18.99 17.7342 18.9877 17.9964C18.9854 18.2586 18.8803 18.5094 18.6948 18.6948C18.5094 18.8802 18.2586 18.9854 17.9964 18.9877C17.7342 18.9899 17.4816 18.8891 17.293 18.707L12 13.414L6.70703 18.707C6.51843 18.8891 6.26583 18.9899 6.00363 18.9877C5.74143 18.9854 5.49062 18.8802 5.30521 18.6948C5.1198 18.5094 5.01464 18.2586 5.01236 17.9964C5.01008 17.7342 5.11087 17.4816 5.29303 17.293L10.586 12L5.29303 6.70699C5.10556 6.51946 5.00024 6.26515 5.00024 5.99999C5.00024 5.73483 5.10556 5.48052 5.29303 5.29299Z" fill="black"/>
</svg>
