<svg width="24" height="24" viewBox="0 0 24 24" fill="none" xmlns="http://www.w3.org/2000/svg">
<path d="M20 3C20.2652 3 20.5196 3.10536 20.7071 3.29289C20.8947 3.48043 21 3.73478 21 4V5.444C21 7.087 21 8.381 20.915 9.422C20.828 10.485 20.648 11.372 20.237 12.178C19.5657 13.4952 18.4945 14.5661 17.177 15.237C16.372 15.647 15.485 15.828 14.422 15.915C13.381 16 12.087 16 10.444 16H6.41403L9.70703 19.293C9.88919 19.4816 9.98998 19.7342 9.98771 19.9964C9.98543 20.2586 9.88026 20.5094 9.69485 20.6948C9.50944 20.8802 9.25863 20.9854 8.99643 20.9877C8.73424 20.99 8.48163 20.8892 8.29303 20.707L3.29303 15.707C3.10556 15.5195 3.00024 15.2652 3.00024 15C3.00024 14.7348 3.10556 14.4805 3.29303 14.293L8.29303 9.293C8.48163 9.11084 8.73424 9.01005 8.99643 9.01233C9.25863 9.0146 9.50944 9.11977 9.69485 9.30518C9.88026 9.49059 9.98543 9.7414 9.98771 10.0036C9.98998 10.2658 9.88919 10.5184 9.70703 10.707L6.41403 14H10.4C12.097 14 13.309 14 14.26 13.922C15.198 13.845 15.793 13.698 16.27 13.455C17.2108 12.9756 17.9757 12.2108 18.455 11.27C18.698 10.793 18.845 10.198 18.922 9.26C18.999 8.309 19 7.097 19 5.4V4C19 3.73478 19.1054 3.48043 19.2929 3.29289C19.4805 3.10536 19.7348 3 20 3Z" fill="black"/>
</svg>
