<svg width="24" height="24" viewBox="0 0 24 24" fill="none" xmlns="http://www.w3.org/2000/svg">
<path d="M6.759 2H17.24C18.045 2 18.71 2 19.25 2.044C19.813 2.09 20.33 2.189 20.815 2.436C21.5676 2.81949 22.1795 3.43139 22.563 4.184C22.81 4.669 22.909 5.186 22.955 5.748C23 6.29 23 6.954 23 7.758V12.241C23 13.046 23 13.711 22.956 14.251C22.91 14.814 22.811 15.331 22.564 15.816C22.1805 16.5686 21.5686 17.1805 20.816 17.564C20.331 17.811 19.814 17.91 19.252 17.956C18.711 18 18.046 18 17.242 18H6.758C5.953 18 5.288 18 4.748 17.956C4.185 17.91 3.668 17.811 3.183 17.564C2.43039 17.1805 1.81849 16.5686 1.435 15.816C1.188 15.331 1.089 14.814 1.043 14.252C1 13.71 1 13.046 1 12.242V7.758C1 6.953 1 6.288 1.044 5.748C1.09 5.185 1.189 4.668 1.436 4.183C1.81949 3.43039 2.43139 2.81849 3.184 2.435C3.669 2.188 4.186 2.089 4.748 2.043C5.29 2 5.954 2 6.758 2H6.759ZM4.91 4.038C4.472 4.073 4.247 4.138 4.091 4.218C3.71469 4.40974 3.40874 4.71569 3.217 5.092C3.137 5.248 3.072 5.472 3.037 5.911C3 6.361 3 6.943 3 7.8V12.2C3 13.057 3 13.639 3.038 14.089C3.073 14.527 3.138 14.752 3.218 14.908C3.40974 15.2843 3.71569 15.5903 4.092 15.782C4.248 15.862 4.472 15.927 4.911 15.962C5.361 16 5.943 16 6.8 16H17.2C18.057 16 18.639 16 19.089 15.962C19.527 15.927 19.752 15.862 19.908 15.782C20.2843 15.5903 20.5903 15.2843 20.782 14.908C20.862 14.752 20.927 14.528 20.962 14.089C20.999 13.639 21 13.057 21 12.2V7.8C21 6.943 21 6.361 20.962 5.911C20.927 5.473 20.862 5.248 20.782 5.092C20.5903 4.71569 20.2843 4.40974 19.908 4.218C19.752 4.138 19.528 4.073 19.089 4.038C18.639 4 18.057 4 17.2 4H6.8C5.943 4 5.361 4 4.911 4.038H4.91ZM12 21C10.6172 20.9971 9.25146 21.3054 8.004 21.902C7.76478 22.0167 7.48978 22.0317 7.23951 21.9436C6.98925 21.8556 6.78421 21.6717 6.6695 21.4325C6.55479 21.1933 6.53982 20.9183 6.62787 20.668C6.71591 20.4177 6.89978 20.2127 7.139 20.098C8.65649 19.3721 10.3178 18.9968 12 19C13.742 19 15.393 19.394 16.86 20.098C17.0992 20.2126 17.2831 20.4175 17.3713 20.6677C17.4594 20.9178 17.4446 21.1928 17.33 21.432C17.2154 21.6712 17.0105 21.8551 16.7603 21.9433C16.5102 22.0314 16.2352 22.0166 15.996 21.902C14.7485 21.3054 13.3828 20.9971 12 21Z" fill="black"/>
</svg>
