<svg width="24" height="24" viewBox="0 0 24 24" fill="none" xmlns="http://www.w3.org/2000/svg">
<path d="M11 4.00002C9.4087 4.00002 7.88258 4.63216 6.75736 5.75737C5.63214 6.88259 5 8.40872 5 10C5 11.5913 5.63214 13.1174 6.75736 14.2427C7.88258 15.3679 9.4087 16 11 16C12.5913 16 14.1174 15.3679 15.2426 14.2427C16.3679 13.1174 17 11.5913 17 10C17 8.40872 16.3679 6.88259 15.2426 5.75737C14.1174 4.63216 12.5913 4.00002 11 4.00002ZM3 10C3.00018 8.72688 3.30422 7.47216 3.88684 6.34016C4.46946 5.20815 5.31384 4.23154 6.34981 3.4915C7.38577 2.75146 8.5834 2.26935 9.84315 2.08525C11.1029 1.90114 12.3884 2.02036 13.5928 2.43299C14.7973 2.84562 15.8858 3.53975 16.768 4.45768C17.6502 5.37562 18.3006 6.49085 18.6651 7.71069C19.0296 8.93054 19.0977 10.2198 18.8638 11.4712C18.6298 12.7227 18.1006 13.9002 17.32 14.906L22.707 20.293C22.8892 20.4816 22.99 20.7342 22.9877 20.9964C22.9854 21.2586 22.8802 21.5094 22.6948 21.6948C22.5094 21.8802 22.2586 21.9854 21.9964 21.9877C21.7342 21.99 21.4816 21.8892 21.293 21.707L15.906 16.32C14.7235 17.2381 13.307 17.806 11.8178 17.959C10.3285 18.112 8.82619 17.8441 7.48165 17.1857C6.1371 16.5273 5.00429 15.5048 4.21202 14.2345C3.41976 12.9642 2.99983 11.4971 3 10Z" fill="black"/>
<path d="M3 10C3.00018 8.72688 3.30422 7.47216 3.88684 6.34016C4.46946 5.20815 5.31384 4.23154 6.34981 3.4915C7.38577 2.75146 8.5834 2.26935 9.84315 2.08525C11.1029 1.90114 12.3884 2.02036 13.5928 2.43299C14.7973 2.84562 15.8858 3.53975 16.768 4.45768C17.6502 5.37562 18.3006 6.49085 18.6651 7.71069C19.0296 8.93054 19.0977 10.2198 18.8638 11.4712C18.6298 12.7227 18.1006 13.9002 17.32 14.906L22.707 20.293C22.8892 20.4816 22.99 20.7342 22.9877 20.9964C22.9854 21.2586 22.8802 21.5094 22.6948 21.6948C22.5094 21.8802 22.2586 21.9854 21.9964 21.9877C21.7342 21.99 21.4816 21.8892 21.293 21.707L15.906 16.32C14.7235 17.2381 13.307 17.806 11.8178 17.959C10.3285 18.112 8.82619 17.8441 7.48165 17.1857C6.1371 16.5273 5.00429 15.5048 4.21202 14.2345C3.41976 12.9642 2.99983 11.4971 3 10ZM11 4.00002C10.2121 4.00002 9.43185 4.15521 8.7039 4.45674C7.97595 4.75827 7.31451 5.20022 6.75736 5.75737C6.20021 6.31453 5.75825 6.97596 5.45672 7.70391C5.15519 8.43187 5 9.21208 5 10C5 10.7879 5.15519 11.5682 5.45672 12.2961C5.75825 13.0241 6.20021 13.6855 6.75736 14.2427C7.31451 14.7998 7.97595 15.2418 8.7039 15.5433C9.43185 15.8448 10.2121 16 11 16C12.5913 16 14.1174 15.3679 15.2426 14.2427C16.3679 13.1174 17 11.5913 17 10C17 8.40872 16.3679 6.88259 15.2426 5.75737C14.1174 4.63216 12.5913 4.00002 11 4.00002Z" fill="black"/>
</svg>
