<svg width="24" height="24" viewBox="0 0 24 24" fill="none" xmlns="http://www.w3.org/2000/svg">
<path d="M16 1C16.2021 1.00007 16.3994 1.06135 16.5659 1.17578C16.7325 1.2902 16.8604 1.4524 16.933 1.641L18.112 4.705C18.412 5.486 18.507 5.712 18.636 5.893C18.7653 6.07514 18.9241 6.23435 19.106 6.364C19.288 6.494 19.513 6.588 20.295 6.888L23.359 8.067C23.5474 8.13968 23.7094 8.26772 23.8237 8.43426C23.938 8.6008 23.9991 8.79803 23.9991 9C23.9991 9.20197 23.938 9.3992 23.8237 9.56574C23.7094 9.73228 23.5474 9.86032 23.359 9.933L20.295 11.112C19.513 11.412 19.288 11.507 19.107 11.636C18.925 11.766 18.766 11.925 18.636 12.106C18.506 12.288 18.412 12.514 18.112 13.295L16.933 16.359C16.8603 16.5474 16.7323 16.7094 16.5657 16.8237C16.3992 16.938 16.202 16.9991 16 16.9991C15.798 16.9991 15.6008 16.938 15.4343 16.8237C15.2677 16.7094 15.1397 16.5474 15.067 16.359L13.888 13.295C13.588 12.514 13.493 12.288 13.364 12.107C13.2348 11.9248 13.0759 11.7656 12.894 11.636C12.712 11.506 12.486 11.412 11.705 11.112L8.64099 9.933C8.45256 9.86032 8.29055 9.73228 8.17629 9.56574C8.06203 9.3992 8.00087 9.20197 8.00087 9C8.00087 8.79803 8.06203 8.6008 8.17629 8.43426C8.29055 8.26772 8.45256 8.13968 8.64099 8.067L11.705 6.888C12.486 6.588 12.712 6.493 12.893 6.364C13.0751 6.23473 13.2343 6.07587 13.364 5.894C13.494 5.712 13.588 5.486 13.888 4.705L15.067 1.641C15.1395 1.4524 15.2675 1.2902 15.4341 1.17578C15.6006 1.06135 15.7979 1.00007 16 1ZM16 4.786L15.755 5.423L15.715 5.525C15.472 6.16 15.288 6.639 14.995 7.052C14.7356 7.41653 14.4168 7.73495 14.052 7.994C13.639 8.288 13.16 8.472 12.525 8.716L12.423 8.755L11.786 9L12.423 9.245L12.525 9.285C13.16 9.528 13.639 9.712 14.052 10.005C14.4165 10.2644 14.7349 10.5832 14.994 10.948C15.288 11.361 15.472 11.84 15.716 12.475L15.755 12.577L16 13.214L16.245 12.577L16.285 12.475C16.528 11.84 16.712 11.361 17.005 10.948C17.2644 10.5835 17.5832 10.265 17.948 10.006C18.361 9.712 18.84 9.528 19.474 9.284L19.577 9.245L20.214 9L19.577 8.755L19.474 8.715C18.84 8.472 18.361 8.288 17.948 7.995C17.5835 7.73556 17.265 7.41681 17.006 7.052C16.712 6.639 16.528 6.16 16.284 5.525L16.245 5.423L16 4.786ZM7.49999 12C7.68566 12.0001 7.86762 12.0519 8.02552 12.1496C8.18342 12.2472 8.311 12.3869 8.39399 12.553L9.17899 14.122C9.46099 14.687 9.54699 14.849 9.65199 14.985C9.7569 15.1211 9.8789 15.2431 10.015 15.348C10.151 15.452 10.313 15.538 10.878 15.821L12.448 16.606C12.6139 16.6891 12.7534 16.8168 12.8508 16.9747C12.9483 17.1326 12.9999 17.3144 12.9999 17.5C12.9999 17.6856 12.9483 17.8674 12.8508 18.0253C12.7534 18.1832 12.6139 18.3109 12.448 18.394L10.878 19.179C10.313 19.461 10.151 19.548 10.015 19.652C9.87893 19.7569 9.75692 19.8789 9.65199 20.015C9.54699 20.151 9.46199 20.313 9.17899 20.878L8.39399 22.448C8.31085 22.6139 8.1832 22.7534 8.02532 22.8508C7.86743 22.9483 7.68554 22.9999 7.49999 22.9999C7.31444 22.9999 7.13255 22.9483 6.97467 22.8508C6.81678 22.7534 6.68913 22.6139 6.60599 22.448L5.82099 20.878C5.53899 20.313 5.45299 20.151 5.34799 20.015C5.24306 19.8789 5.12106 19.7569 4.98499 19.652C4.84899 19.547 4.68699 19.462 4.12199 19.179L2.55199 18.394C2.38611 18.3109 2.24663 18.1832 2.14916 18.0253C2.05169 17.8674 2.00006 17.6856 2.00006 17.5C2.00006 17.3144 2.05169 17.1326 2.14916 16.9747C2.24663 16.8168 2.38611 16.6891 2.55199 16.606L4.12199 15.821C4.68699 15.539 4.84899 15.453 4.98499 15.348C5.12109 15.2431 5.24309 15.1211 5.34799 14.985C5.45299 14.849 5.53799 14.687 5.82099 14.122L6.60599 12.552C6.68912 12.3861 6.81677 12.2466 6.97466 12.1491C7.13254 12.0516 7.31444 12 7.49999 12ZM7.49999 15.236C7.30499 15.626 7.14399 15.931 6.93199 16.206C6.72199 16.478 6.47799 16.722 6.20599 16.932C5.93099 17.144 5.62599 17.305 5.23599 17.5C5.62599 17.695 5.93099 17.856 6.20599 18.068C6.47799 18.278 6.72199 18.522 6.93199 18.794C7.14399 19.069 7.30499 19.374 7.49999 19.764C7.69499 19.374 7.85599 19.069 8.06799 18.794C8.27799 18.522 8.52199 18.278 8.79399 18.068C9.06899 17.856 9.37399 17.695 9.76399 17.5C9.37399 17.305 9.06899 17.144 8.79399 16.932C8.52183 16.7222 8.27782 16.4782 8.06799 16.206C7.85599 15.931 7.69499 15.626 7.49999 15.236Z" fill="black"/>
</svg>
