<svg width="24" height="24" viewBox="0 0 24 24" fill="none" xmlns="http://www.w3.org/2000/svg">
<path d="M12 1C12.2652 1 12.5196 1.10536 12.7071 1.29289C12.8946 1.48043 13 1.73478 13 2V4C13 4.26522 12.8946 4.51957 12.7071 4.70711C12.5196 4.89464 12.2652 5 12 5C11.7348 5 11.4804 4.89464 11.2929 4.70711C11.1054 4.51957 11 4.26522 11 4V2C11 1.73478 11.1054 1.48043 11.2929 1.29289C11.4804 1.10536 11.7348 1 12 1ZM4.193 4.193C4.38053 4.00553 4.63484 3.90021 4.9 3.90021C5.16516 3.90021 5.41947 4.00553 5.607 4.193L7.021 5.607C7.11651 5.69925 7.19269 5.80959 7.2451 5.9316C7.29751 6.0536 7.3251 6.18482 7.32625 6.3176C7.32741 6.45038 7.3021 6.58206 7.25182 6.70495C7.20154 6.82785 7.12729 6.9395 7.0334 7.0334C6.9395 7.12729 6.82785 7.20154 6.70495 7.25182C6.58206 7.3021 6.45038 7.32741 6.3176 7.32625C6.18482 7.3251 6.0536 7.29751 5.9316 7.2451C5.80959 7.19269 5.69925 7.11651 5.607 7.021L4.193 5.607C4.00553 5.41947 3.90021 5.16516 3.90021 4.9C3.90021 4.63484 4.00553 4.38053 4.193 4.193ZM19.807 4.193C19.9945 4.38053 20.0998 4.63484 20.0998 4.9C20.0998 5.16516 19.9945 5.41947 19.807 5.607L18.393 7.021C18.3008 7.11651 18.1904 7.19269 18.0684 7.2451C17.9464 7.29751 17.8152 7.3251 17.6824 7.32625C17.5496 7.32741 17.4179 7.3021 17.295 7.25182C17.1721 7.20154 17.0605 7.12729 16.9666 7.0334C16.8727 6.9395 16.7985 6.82785 16.7482 6.70495C16.6979 6.58206 16.6726 6.45038 16.6738 6.3176C16.6749 6.18482 16.7025 6.0536 16.7549 5.9316C16.8073 5.80959 16.8835 5.69925 16.979 5.607L18.393 4.193C18.5805 4.00553 18.8348 3.90021 19.1 3.90021C19.3652 3.90021 19.6195 4.00553 19.807 4.193ZM6 12C6 10.4087 6.63214 8.88258 7.75736 7.75736C8.88258 6.63214 10.4087 6 12 6C13.5913 6 15.1174 6.63214 16.2426 7.75736C17.3679 8.88258 18 10.4087 18 12C18 13.5913 17.3679 15.1174 16.2426 16.2426C15.1174 17.3679 13.5913 18 12 18C10.4087 18 8.88258 17.3679 7.75736 16.2426C6.63214 15.1174 6 13.5913 6 12ZM12 8C11.4747 8 10.9546 8.10346 10.4693 8.30448C9.98396 8.5055 9.54301 8.80014 9.17157 9.17157C8.80014 9.54301 8.5055 9.98396 8.30448 10.4693C8.10346 10.9546 8 11.4747 8 12C8 12.5253 8.10346 13.0454 8.30448 13.5307C8.5055 14.016 8.80014 14.457 9.17157 14.8284C9.54301 15.1999 9.98396 15.4945 10.4693 15.6955C10.9546 15.8965 11.4747 16 12 16C13.0609 16 14.0783 15.5786 14.8284 14.8284C15.5786 14.0783 16 13.0609 16 12C16 10.9391 15.5786 9.92172 14.8284 9.17157C14.0783 8.42143 13.0609 8 12 8ZM1 12C1 11.7348 1.10536 11.4804 1.29289 11.2929C1.48043 11.1054 1.73478 11 2 11H4C4.26522 11 4.51957 11.1054 4.70711 11.2929C4.89464 11.4804 5 11.7348 5 12C5 12.2652 4.89464 12.5196 4.70711 12.7071C4.51957 12.8946 4.26522 13 4 13H2C1.73478 13 1.48043 12.8946 1.29289 12.7071C1.10536 12.5196 1 12.2652 1 12ZM19 12C19 11.7348 19.1054 11.4804 19.2929 11.2929C19.4804 11.1054 19.7348 11 20 11H22C22.2652 11 22.5196 11.1054 22.7071 11.2929C22.8946 11.4804 23 11.7348 23 12C23 12.2652 22.8946 12.5196 22.7071 12.7071C22.5196 12.8946 22.2652 13 22 13H20C19.7348 13 19.4804 12.8946 19.2929 12.7071C19.1054 12.5196 19 12.2652 19 12ZM7.021 16.983C7.20847 17.1705 7.31379 17.4248 7.31379 17.69C7.31379 17.9552 7.20847 18.2095 7.021 18.397L5.607 19.811C5.4184 19.9932 5.1658 20.094 4.9036 20.0917C4.6414 20.0894 4.39059 19.9842 4.20518 19.7988C4.01977 19.6134 3.9146 19.3626 3.91233 19.1004C3.91005 18.8382 4.01084 18.5856 4.193 18.397L5.607 16.983C5.79453 16.7955 6.04884 16.6902 6.314 16.6902C6.57916 16.6902 6.83347 16.7955 7.021 16.983ZM16.979 16.983C17.1665 16.7955 17.4208 16.6902 17.686 16.6902C17.9512 16.6902 18.2055 16.7955 18.393 16.983L19.807 18.397C19.9892 18.5856 20.09 18.8382 20.0877 19.1004C20.0854 19.3626 19.9802 19.6134 19.7948 19.7988C19.6094 19.9842 19.3586 20.0894 19.0964 20.0917C18.8342 20.094 18.5816 19.9932 18.393 19.811L16.979 18.397C16.7915 18.2095 16.6862 17.9552 16.6862 17.69C16.6862 17.4248 16.7915 17.1705 16.979 16.983ZM12 19C12.2652 19 12.5196 19.1054 12.7071 19.2929C12.8946 19.4804 13 19.7348 13 20V22C13 22.2652 12.8946 22.5196 12.7071 22.7071C12.5196 22.8946 12.2652 23 12 23C11.7348 23 11.4804 22.8946 11.2929 22.7071C11.1054 22.5196 11 22.2652 11 22V20C11 19.7348 11.1054 19.4804 11.2929 19.2929C11.4804 19.1054 11.7348 19 12 19Z" fill="black"/>
</svg>
