<svg width="322" height="420" viewBox="0 0 322 420" fill="none" xmlns="http://www.w3.org/2000/svg">
<path d="M284.544 310.255C283.024 333.426 282.263 345.012 277.267 353.798C272.868 361.533 266.227 367.753 258.221 371.636C249.127 376.046 237.516 376.047 214.295 376.047H107.797C84.5757 376.047 72.9651 376.046 63.8711 371.636C55.8648 367.753 49.2232 361.533 44.8242 353.798C39.8279 345.012 39.0679 333.426 37.5479 310.255L22 73.2559H300.091L284.544 310.255Z" fill="url(#paint0_linear_205_31)"/>
<path d="M30.5898 102.876L30.5938 102.933C31.8484 121.403 47.1972 135.744 65.71 135.744H256.07C274.515 135.744 289.819 121.482 291.118 103.084L291.12 103.061L291.122 103.038L293.738 71.207L300 72L298 103.5L298.001 103.501C296.406 126.089 278.714 143.744 256.07 143.744H65.71C43.0079 143.744 25.5668 126.142 24 103.5L22 72L27.9727 71.0439L30.5898 102.876Z" fill="url(#paint1_linear_205_31)" fill-opacity="0.15"/>
<path d="M253.743 42.7324C281.142 42.7325 300.091 54.3755 300.091 73.2559C300.091 92.1362 284.801 107.441 256.183 107.441H65.9092C37.2905 107.441 22 92.1362 22 73.2559C22 54.3755 40.9495 42.7325 68.3486 42.7324H253.743Z" fill="url(#paint2_linear_205_31)"/>
<path fill-rule="evenodd" clip-rule="evenodd" d="M253.743 42.7324C281.142 42.7325 300.091 54.3755 300.091 73.2559L300.08 74.1377C299.61 92.6105 284.355 107.441 256.183 107.441H65.9092L64.5771 107.431C37.2567 106.97 22.473 92.3172 22.0107 74.1377L22 73.2559C22.0001 54.6706 40.3619 43.0984 67.0703 42.7412L68.3486 42.7324H253.743ZM68.3486 50.7324C55.6477 50.7325 45.7183 53.4509 39.2393 57.6348C33.0106 61.6571 30 66.9226 30 73.2559C30 80.4001 32.8282 86.6715 38.3535 91.291C43.9758 95.9913 52.9815 99.4413 65.9092 99.4414H256.182C269.109 99.4414 278.115 95.9913 283.737 91.291C289.263 86.6715 292.091 80.4003 292.091 73.2559C292.091 66.9225 289.08 61.6571 282.852 57.6348C276.372 53.451 266.443 50.7324 253.742 50.7324H68.3486Z" fill="url(#paint3_linear_205_31)"/>
<path d="M183.682 126.64V121.96C183.682 121.712 183.77 121.498 183.946 121.318C184.126 121.138 184.338 121.048 184.582 121.048C184.826 121.048 185.036 121.132 185.212 121.3C185.392 121.468 185.482 121.666 185.482 121.894V122.296L185.296 122.056H185.524C185.76 121.712 186.072 121.44 186.46 121.24C186.852 121.036 187.282 120.934 187.75 120.934C188.45 120.934 189.002 121.14 189.406 121.552C189.814 121.964 190.018 122.514 190.018 123.202V126.64C190.018 126.904 189.926 127.13 189.742 127.318C189.558 127.502 189.338 127.594 189.082 127.594C188.822 127.594 188.598 127.502 188.41 127.318C188.226 127.13 188.134 126.904 188.134 126.64V123.694C188.134 123.298 188.038 122.994 187.846 122.782C187.654 122.57 187.36 122.464 186.964 122.464C186.556 122.464 186.22 122.598 185.956 122.866C185.696 123.134 185.566 123.468 185.566 123.868V126.64C185.566 126.904 185.472 127.13 185.284 127.318C185.1 127.502 184.88 127.594 184.624 127.594C184.368 127.594 184.146 127.502 183.958 127.318C183.774 127.13 183.682 126.904 183.682 126.64Z" fill="#A9A9A9"/>
<path d="M181.58 127.594C181.32 127.594 181.096 127.5 180.908 127.312C180.724 127.124 180.632 126.898 180.632 126.634V122.002C180.632 121.742 180.724 121.518 180.908 121.33C181.096 121.142 181.32 121.048 181.58 121.048C181.836 121.048 182.056 121.142 182.24 121.33C182.424 121.518 182.516 121.742 182.516 122.002V126.634C182.516 126.898 182.424 127.124 182.24 127.312C182.056 127.5 181.836 127.594 181.58 127.594ZM181.586 120.124C181.286 120.124 181.028 120.02 180.812 119.812C180.6 119.604 180.494 119.35 180.494 119.05C180.494 118.75 180.6 118.5 180.812 118.3C181.028 118.1 181.286 118 181.586 118C181.894 118 182.148 118.1 182.348 118.3C182.552 118.5 182.654 118.752 182.654 119.056C182.654 119.352 182.552 119.604 182.348 119.812C182.148 120.02 181.894 120.124 181.586 120.124Z" fill="#A9A9A9"/>
<path d="M176.842 127.702C176.378 127.702 175.966 127.61 175.606 127.426C175.246 127.238 174.962 127.004 174.754 126.724H174.304L174.724 126.274V126.808C174.724 127.016 174.64 127.206 174.472 127.378C174.304 127.55 174.086 127.636 173.818 127.636C173.558 127.636 173.338 127.542 173.158 127.354C172.982 127.166 172.894 126.938 172.894 126.67V119.548C172.894 119.288 172.986 119.066 173.17 118.882C173.358 118.694 173.58 118.6 173.836 118.6C174.092 118.6 174.312 118.694 174.496 118.882C174.684 119.066 174.778 119.288 174.778 119.548V121.96H174.82C175.016 121.676 175.298 121.434 175.666 121.234C176.034 121.034 176.454 120.934 176.926 120.934C177.754 120.934 178.456 121.242 179.032 121.858C179.612 122.47 179.902 123.288 179.902 124.312C179.902 125.316 179.608 126.132 179.02 126.76C178.436 127.388 177.71 127.702 176.842 127.702ZM176.362 126.142C176.862 126.142 177.262 125.974 177.562 125.638C177.862 125.298 178.012 124.858 178.012 124.318C178.012 123.782 177.86 123.346 177.556 123.01C177.256 122.67 176.858 122.5 176.362 122.5C175.882 122.5 175.488 122.668 175.18 123.004C174.872 123.34 174.718 123.782 174.718 124.33C174.718 124.87 174.868 125.308 175.168 125.644C175.472 125.976 175.87 126.142 176.362 126.142Z" fill="#A9A9A9"/>
<path d="M169.037 127.702C167.957 127.702 167.095 127.39 166.451 126.766C165.811 126.142 165.491 125.328 165.491 124.324C165.491 123.384 165.803 122.584 166.427 121.924C167.051 121.264 167.893 120.934 168.953 120.934C169.889 120.934 170.659 121.224 171.263 121.804C171.871 122.384 172.175 123.074 172.175 123.874V123.922C172.175 124.178 172.091 124.384 171.923 124.54C171.759 124.692 171.527 124.768 171.227 124.768H166.445V123.766H170.459V123.76C170.431 123.364 170.285 123.036 170.021 122.776C169.757 122.516 169.399 122.386 168.947 122.386C168.471 122.386 168.079 122.554 167.771 122.89C167.467 123.222 167.315 123.69 167.315 124.294C167.315 124.934 167.485 125.424 167.825 125.764C168.165 126.104 168.617 126.274 169.181 126.274C169.397 126.274 169.581 126.254 169.733 126.214C169.889 126.174 170.029 126.12 170.153 126.052C170.281 125.98 170.409 125.89 170.537 125.782C170.685 125.662 170.855 125.598 171.047 125.59C171.243 125.578 171.413 125.636 171.557 125.764C171.705 125.884 171.783 126.042 171.791 126.238C171.799 126.434 171.727 126.616 171.575 126.784C171.403 126.976 171.197 127.138 170.957 127.27C170.721 127.402 170.451 127.506 170.147 127.582C169.847 127.662 169.477 127.702 169.037 127.702Z" fill="#A9A9A9"/>
<path d="M163.856 127.594C163.6 127.594 163.378 127.502 163.19 127.318C163.006 127.13 162.914 126.906 162.914 126.646V119.548C162.914 119.288 163.006 119.066 163.19 118.882C163.378 118.694 163.6 118.6 163.856 118.6C164.112 118.6 164.332 118.694 164.516 118.882C164.704 119.066 164.798 119.288 164.798 119.548V126.646C164.798 126.906 164.704 127.13 164.516 127.318C164.332 127.502 164.112 127.594 163.856 127.594Z" fill="#A9A9A9"/>
<path d="M159.491 127.708C158.431 127.708 157.579 127.39 156.935 126.754C156.291 126.114 155.969 125.306 155.969 124.33C155.969 123.346 156.288 122.534 156.928 121.894C157.568 121.254 158.439 120.934 159.539 120.934C159.939 120.934 160.285 120.978 160.577 121.066C160.873 121.154 161.133 121.274 161.357 121.426C161.585 121.574 161.761 121.736 161.885 121.912C162.013 122.1 162.061 122.3 162.029 122.512C162.001 122.72 161.905 122.884 161.741 123.004C161.577 123.128 161.401 123.184 161.213 123.172C161.025 123.16 160.846 123.092 160.678 122.968C160.582 122.884 160.485 122.81 160.385 122.746C160.289 122.682 160.171 122.63 160.031 122.59C159.895 122.546 159.727 122.524 159.527 122.524C159.039 122.524 158.639 122.692 158.327 123.028C158.015 123.36 157.859 123.792 157.859 124.324C157.859 124.864 158.021 125.296 158.345 125.62C158.669 125.944 159.061 126.106 159.521 126.106C159.729 126.106 159.907 126.084 160.055 126.04C160.203 125.996 160.321 125.944 160.409 125.884C160.501 125.824 160.595 125.75 160.691 125.662C160.859 125.522 161.033 125.436 161.213 125.404C161.393 125.372 161.571 125.406 161.747 125.506C161.947 125.618 162.077 125.782 162.137 125.998C162.197 126.214 162.169 126.426 162.053 126.634C161.957 126.798 161.791 126.964 161.555 127.132C161.323 127.296 161.035 127.432 160.691 127.54C160.351 127.652 159.951 127.708 159.491 127.708Z" fill="#A9A9A9"/>
<path d="M151.771 130.216C151.447 130.216 151.203 130.086 151.039 129.826C150.875 129.57 150.869 129.286 151.021 128.974L152.143 126.652L152.149 127.504L149.779 122.332C149.615 121.988 149.625 121.69 149.809 121.438C149.993 121.182 150.233 121.054 150.529 121.054C150.721 121.054 150.893 121.11 151.045 121.222C151.201 121.334 151.313 121.472 151.381 121.636L152.551 124.516L152.851 125.326H152.893L153.211 124.492L154.405 121.618C154.469 121.462 154.575 121.33 154.723 121.222C154.875 121.11 155.039 121.054 155.215 121.054C155.531 121.054 155.773 121.182 155.941 121.438C156.109 121.69 156.119 121.974 155.971 122.29L152.623 129.634C152.539 129.814 152.421 129.956 152.269 130.06C152.121 130.164 151.955 130.216 151.771 130.216Z" fill="#A9A9A9"/>
<path d="M146.745 127.708C145.685 127.708 144.833 127.39 144.189 126.754C143.545 126.114 143.223 125.306 143.223 124.33C143.223 123.346 143.543 122.534 144.183 121.894C144.823 121.254 145.693 120.934 146.793 120.934C147.193 120.934 147.539 120.978 147.831 121.066C148.127 121.154 148.387 121.274 148.611 121.426C148.839 121.574 149.015 121.736 149.139 121.912C149.267 122.1 149.315 122.3 149.283 122.512C149.255 122.72 149.159 122.884 148.995 123.004C148.831 123.128 148.655 123.184 148.467 123.172C148.279 123.16 148.101 123.092 147.933 122.968C147.837 122.884 147.739 122.81 147.639 122.746C147.543 122.682 147.425 122.63 147.285 122.59C147.149 122.546 146.981 122.524 146.781 122.524C146.293 122.524 145.893 122.692 145.581 123.028C145.269 123.36 145.113 123.792 145.113 124.324C145.113 124.864 145.275 125.296 145.599 125.62C145.923 125.944 146.315 126.106 146.775 126.106C146.983 126.106 147.161 126.084 147.309 126.04C147.457 125.996 147.575 125.944 147.663 125.884C147.755 125.824 147.849 125.75 147.945 125.662C148.113 125.522 148.287 125.436 148.467 125.404C148.647 125.372 148.825 125.406 149.001 125.506C149.201 125.618 149.331 125.782 149.391 125.998C149.451 126.214 149.423 126.426 149.307 126.634C149.211 126.798 149.045 126.964 148.809 127.132C148.577 127.296 148.289 127.432 147.945 127.54C147.605 127.652 147.205 127.708 146.745 127.708Z" fill="#A9A9A9"/>
<path d="M139.811 127.702C138.731 127.702 137.869 127.39 137.225 126.766C136.585 126.142 136.265 125.328 136.265 124.324C136.265 123.384 136.577 122.584 137.201 121.924C137.825 121.264 138.667 120.934 139.727 120.934C140.663 120.934 141.433 121.224 142.037 121.804C142.645 122.384 142.949 123.074 142.949 123.874V123.922C142.949 124.178 142.865 124.384 142.697 124.54C142.533 124.692 142.301 124.768 142.001 124.768H137.219V123.766H141.233V123.76C141.205 123.364 141.059 123.036 140.795 122.776C140.531 122.516 140.173 122.386 139.721 122.386C139.245 122.386 138.853 122.554 138.545 122.89C138.241 123.222 138.089 123.69 138.089 124.294C138.089 124.934 138.259 125.424 138.599 125.764C138.939 126.104 139.391 126.274 139.955 126.274C140.171 126.274 140.355 126.254 140.507 126.214C140.663 126.174 140.803 126.12 140.927 126.052C141.055 125.98 141.183 125.89 141.311 125.782C141.459 125.662 141.629 125.598 141.821 125.59C142.017 125.578 142.187 125.636 142.331 125.764C142.479 125.884 142.557 126.042 142.565 126.238C142.573 126.434 142.501 126.616 142.349 126.784C142.177 126.976 141.971 127.138 141.731 127.27C141.495 127.402 141.225 127.506 140.921 127.582C140.621 127.662 140.251 127.702 139.811 127.702Z" fill="#A9A9A9"/>
<path d="M132.942 127.594C132.686 127.594 132.464 127.502 132.276 127.318C132.092 127.13 132 126.904 132 126.64V121.954C132 121.706 132.088 121.494 132.264 121.318C132.44 121.138 132.65 121.048 132.894 121.048C133.138 121.048 133.348 121.134 133.524 121.306C133.7 121.478 133.788 121.682 133.788 121.918V122.32L133.62 122.122H133.836C133.964 121.766 134.184 121.48 134.496 121.264C134.812 121.044 135.156 120.934 135.528 120.934C135.656 120.934 135.786 120.95 135.918 120.982C136.054 121.014 136.174 121.07 136.278 121.15C136.382 121.226 136.464 121.332 136.524 121.468C136.584 121.604 136.602 121.756 136.578 121.924C136.55 122.092 136.488 122.23 136.392 122.338C136.296 122.442 136.188 122.516 136.068 122.56C135.952 122.6 135.828 122.618 135.696 122.614C135.568 122.606 135.45 122.602 135.342 122.602C134.922 122.602 134.574 122.748 134.298 123.04C134.022 123.332 133.884 123.772 133.884 124.36V126.64C133.884 126.904 133.79 127.13 133.602 127.318C133.418 127.502 133.198 127.594 132.942 127.594Z" fill="#A9A9A9"/>
<defs>
<linearGradient id="paint0_linear_205_31" x1="300.091" y1="209.389" x2="22.0221" y2="211.846" gradientUnits="userSpaceOnUse">
<stop stop-color="#CDCDCD"/>
<stop offset="0.301058" stop-color="#DEDEDE"/>
<stop offset="0.730732" stop-color="#E6E6E6"/>
<stop offset="0.905286" stop-color="#F0F0F0"/>
<stop offset="1" stop-color="#D9D9D9"/>
</linearGradient>
<linearGradient id="paint1_linear_205_31" x1="28.0444" y1="491.904" x2="334.148" y2="466.431" gradientUnits="userSpaceOnUse">
<stop stop-color="#DFDFDF"/>
<stop offset="0.235519" stop-color="#A8A4A4"/>
<stop offset="0.788426" stop-color="#999999"/>
<stop offset="0.87016" stop-color="#CECECE"/>
<stop offset="1" stop-color="#CECECE"/>
</linearGradient>
<linearGradient id="paint2_linear_205_31" x1="161.046" y1="23.8661" x2="161.046" y2="376.049" gradientUnits="userSpaceOnUse">
<stop stop-color="#BEBEBE"/>
<stop offset="1" stop-color="#ACACAC"/>
</linearGradient>
<linearGradient id="paint3_linear_205_31" x1="161.045" y1="107.441" x2="161.045" y2="39.0696" gradientUnits="userSpaceOnUse">
<stop stop-color="#CECECE"/>
<stop offset="1" stop-color="#E9E9E9"/>
</linearGradient>
</defs>
</svg>
