<svg width="322" height="420" viewBox="0 0 322 420" fill="none" xmlns="http://www.w3.org/2000/svg">
<path d="M284.544 310.255C283.024 333.426 282.263 345.012 277.267 353.798C272.868 361.533 266.227 367.753 258.221 371.636C249.127 376.046 237.516 376.047 214.295 376.047H107.797C84.5757 376.047 72.9651 376.046 63.8711 371.636C55.8648 367.753 49.2232 361.533 44.8242 353.798C39.8279 345.012 39.0679 333.426 37.5479 310.255L22 73.2559H300.091L284.544 310.255Z" fill="url(#paint0_linear_205_31)"/>
<path d="M30.5898 102.876L30.5938 102.933C31.8484 121.403 47.1972 135.744 65.71 135.744H256.07C274.515 135.744 289.819 121.482 291.118 103.084L291.12 103.061L291.122 103.038L293.738 71.207L300 72L298 103.5L298.001 103.501C296.406 126.089 278.714 143.744 256.07 143.744H65.71C43.0079 143.744 25.5668 126.142 24 103.5L22 72L27.9727 71.0439L30.5898 102.876Z" fill="url(#paint1_linear_205_31)" fill-opacity="0.15"/>
<path d="M153.38 120.305C153.862 120.305 154.289 120.359 154.657 120.465C155.025 120.566 155.359 120.712 155.662 120.903C155.965 121.088 156.167 121.263 156.264 121.427C156.367 121.592 156.403 121.771 156.371 121.962C156.338 122.147 156.241 122.293 156.085 122.404C155.928 122.521 155.767 122.579 155.599 122.579C155.431 122.574 155.286 122.524 155.167 122.428C155.053 122.333 154.904 122.233 154.72 122.127C154.542 122.016 154.344 121.932 154.128 121.879C153.917 121.821 153.671 121.792 153.39 121.792C152.925 121.792 152.554 121.884 152.283 122.064C152.014 122.239 151.881 122.456 151.88 122.715C151.88 122.948 151.977 123.153 152.172 123.328C152.372 123.497 152.98 123.722 153.992 123.998C155.009 124.269 155.742 124.61 156.191 125.019C156.645 125.427 156.871 125.969 156.871 126.647C156.871 127.453 156.545 128.102 155.89 128.595C155.241 129.089 154.412 129.339 153.405 129.339C152.783 129.339 152.251 129.259 151.808 129.106C151.364 128.952 150.977 128.74 150.652 128.469C150.335 128.195 150.12 127.951 150.006 127.74C149.893 127.523 149.864 127.314 149.924 127.123C149.984 126.933 150.093 126.786 150.254 126.685C150.427 126.59 150.605 126.553 150.783 126.574C150.962 126.59 151.111 126.673 151.23 126.817C151.349 126.954 151.514 127.113 151.725 127.293C151.942 127.468 152.191 127.605 152.473 127.706C152.754 127.801 153.072 127.847 153.429 127.847C153.927 127.847 154.326 127.751 154.623 127.555C154.921 127.354 155.07 127.087 155.07 126.758C155.07 126.42 154.928 126.157 154.643 125.971C154.356 125.785 153.844 125.602 153.113 125.422C151.972 125.141 151.187 124.795 150.759 124.387C150.337 123.979 150.128 123.433 150.128 122.749C150.128 122.022 150.434 121.431 151.045 120.98C151.656 120.53 152.435 120.305 153.38 120.305Z" fill="url(#paint2_linear_205_31)"/>
<path d="M171.769 120.13C172.239 120.13 172.662 120.18 173.036 120.281C173.415 120.381 173.757 120.523 174.06 120.703C174.362 120.878 174.593 121.058 174.749 121.243C174.901 121.428 174.969 121.633 174.953 121.855C174.943 122.072 174.858 122.252 174.701 122.39C174.528 122.538 174.342 122.613 174.143 122.613C173.948 122.608 173.75 122.541 173.555 122.414C173.415 122.313 173.261 122.213 173.099 122.113C172.942 122.012 172.752 121.932 172.531 121.879C172.315 121.821 172.048 121.792 171.735 121.792C170.962 121.792 170.32 122.055 169.812 122.579C169.303 123.104 169.05 123.796 169.05 124.644C169.05 125.498 169.308 126.185 169.822 126.71C170.341 127.235 170.978 127.497 171.735 127.497C172.053 127.497 172.336 127.464 172.579 127.395C172.828 127.326 173.026 127.247 173.172 127.157C173.323 127.067 173.473 126.963 173.613 126.846C173.834 126.672 174.045 126.576 174.245 126.554C174.445 126.533 174.642 126.591 174.837 126.729C175.015 126.857 175.125 127.031 175.157 127.254C175.195 127.476 175.134 127.694 174.982 127.905C174.858 128.08 174.637 128.277 174.313 128.488C173.988 128.7 173.605 128.863 173.167 128.979C172.728 129.101 172.245 129.164 171.72 129.164C170.324 129.164 169.205 128.735 168.361 127.881C167.522 127.022 167.099 125.943 167.098 124.644C167.098 123.35 167.517 122.272 168.351 121.418C169.19 120.559 170.33 120.13 171.769 120.13Z" fill="url(#paint3_linear_205_31)"/>
<path d="M130.578 118.322C130.843 118.322 131.069 118.419 131.253 118.604C131.441 118.789 131.534 119.011 131.534 119.27V120.582H133.088C133.314 120.582 133.504 120.662 133.661 120.815C133.817 120.968 133.898 121.153 133.899 121.369C133.899 121.581 133.818 121.769 133.661 121.928C133.504 122.081 133.314 122.161 133.088 122.161H131.534V126.622C131.534 126.988 131.623 127.268 131.797 127.453C131.97 127.638 132.237 127.73 132.593 127.73C132.711 127.73 132.833 127.717 132.957 127.696C133.08 127.675 133.215 127.663 133.36 127.653C133.506 127.637 133.643 127.666 133.768 127.745C133.897 127.824 133.986 127.95 134.035 128.114C134.094 128.289 134.098 128.452 134.044 128.605C133.996 128.758 133.898 128.879 133.753 128.969C133.607 129.06 133.397 129.143 133.127 129.217C132.856 129.292 132.542 129.329 132.185 129.329C131.389 129.329 130.766 129.113 130.311 128.683C129.857 128.248 129.627 127.627 129.627 126.817V122.161H128.879C128.658 122.161 128.468 122.081 128.306 121.928C128.149 121.769 128.068 121.581 128.068 121.369C128.069 121.153 128.15 120.968 128.306 120.815C128.468 120.662 128.658 120.582 128.879 120.582H129.627V119.27C129.627 119.011 129.72 118.789 129.903 118.604C130.093 118.418 130.318 118.322 130.578 118.322Z" fill="url(#paint4_linear_205_31)"/>
<path fill-rule="evenodd" clip-rule="evenodd" d="M144.802 120.305C145.955 120.305 146.885 120.6 147.589 121.189C148.292 121.773 148.642 122.589 148.642 123.634V128.245C148.642 128.5 148.554 128.717 148.375 128.892C148.197 129.066 147.987 129.154 147.744 129.154C147.49 129.154 147.272 129.071 147.094 128.906C146.915 128.737 146.827 128.537 146.827 128.304V127.954H146.778C146.518 128.331 146.136 128.655 145.632 128.926C145.129 129.196 144.533 129.329 143.846 129.329C142.916 129.329 142.15 129.078 141.55 128.576C140.949 128.072 140.647 127.364 140.647 126.457C140.647 125.545 140.977 124.829 141.637 124.314C142.297 123.795 143.159 123.536 144.22 123.536C144.733 123.537 145.201 123.595 145.623 123.711C146.045 123.823 146.424 123.977 146.754 124.173V123.634C146.754 123.034 146.552 122.584 146.152 122.292C145.752 121.996 145.239 121.85 144.618 121.85C144.282 121.85 143.984 121.883 143.729 121.952C143.481 122.016 143.242 122.108 143.016 122.224C142.789 122.341 142.595 122.445 142.438 122.54C142.287 122.635 142.117 122.669 141.928 122.642C141.739 122.61 141.577 122.523 141.448 122.375C141.324 122.232 141.276 122.056 141.297 121.85C141.319 121.638 141.415 121.454 141.588 121.306C141.767 121.153 142.018 120.994 142.341 120.83C142.666 120.66 143.02 120.531 143.399 120.441C143.783 120.351 144.251 120.305 144.802 120.305ZM144.598 124.776C143.967 124.776 143.47 124.918 143.108 125.198C142.746 125.474 142.565 125.862 142.564 126.36C142.564 126.853 142.721 127.241 143.035 127.516C143.354 127.786 143.794 127.92 144.356 127.92C145.038 127.92 145.614 127.691 146.079 127.23C146.55 126.763 146.783 126.209 146.783 125.573V125.509C146.518 125.282 146.192 125.102 145.802 124.975C145.413 124.842 145.01 124.776 144.598 124.776Z" fill="url(#paint5_linear_205_31)"/>
<path fill-rule="evenodd" clip-rule="evenodd" d="M179.993 120.13C181.144 120.13 182.071 120.426 182.774 121.014C183.478 121.598 183.833 122.414 183.833 123.459V128.07C183.833 128.325 183.739 128.542 183.561 128.717C183.382 128.891 183.173 128.979 182.93 128.979C182.675 128.979 182.458 128.896 182.279 128.731C182.102 128.562 182.012 128.361 182.012 128.129V127.779H181.964C181.704 128.155 181.321 128.48 180.818 128.751C180.315 129.021 179.718 129.154 179.031 129.154C178.101 129.154 177.335 128.904 176.735 128.401C176.134 127.897 175.832 127.189 175.832 126.282C175.832 125.37 176.162 124.654 176.822 124.139C177.483 123.619 178.345 123.362 179.405 123.362C179.919 123.362 180.391 123.42 180.813 123.536C181.234 123.648 181.61 123.802 181.939 123.998V123.459C181.939 122.859 181.738 122.409 181.337 122.117C180.937 121.821 180.425 121.675 179.803 121.675C179.468 121.675 179.174 121.709 178.92 121.777C178.671 121.841 178.433 121.933 178.206 122.049C177.979 122.166 177.785 122.27 177.628 122.365C177.477 122.46 177.307 122.493 177.119 122.467C176.929 122.436 176.768 122.348 176.638 122.2C176.514 122.057 176.461 121.882 176.483 121.675C176.504 121.463 176.601 121.28 176.774 121.131C176.952 120.977 177.206 120.819 177.531 120.655C177.855 120.485 178.207 120.356 178.585 120.266C178.969 120.176 179.44 120.13 179.993 120.13ZM179.789 124.601C179.155 124.601 178.656 124.742 178.293 125.024C177.931 125.299 177.75 125.687 177.75 126.185C177.75 126.678 177.907 127.066 178.221 127.342C178.54 127.612 178.983 127.745 179.546 127.745C180.227 127.744 180.8 127.515 181.264 127.055C181.735 126.588 181.973 126.034 181.973 125.398V125.335C181.708 125.106 181.377 124.927 180.988 124.8C180.599 124.668 180.199 124.601 179.789 124.601Z" fill="url(#paint6_linear_205_31)"/>
<path d="M139.982 120.358C140.176 120.395 140.342 120.458 140.472 120.543C140.601 120.628 140.698 120.749 140.768 120.903C140.838 121.056 140.855 121.231 140.812 121.427C140.763 121.618 140.674 121.768 140.55 121.879C140.431 121.985 140.306 122.052 140.171 122.079C140.036 122.105 139.886 122.105 139.724 122.074C139.568 122.042 139.418 122.025 139.278 122.025C138.667 122.025 138.155 122.246 137.744 122.691C137.338 123.137 137.132 123.786 137.132 124.635V128.207C137.132 128.466 137.039 128.691 136.85 128.882C136.661 129.068 136.435 129.164 136.175 129.164C135.916 129.164 135.69 129.068 135.501 128.882C135.312 128.691 135.214 128.466 135.214 128.207V121.389C135.214 121.139 135.307 120.927 135.486 120.752C135.665 120.577 135.874 120.49 136.117 120.49C136.366 120.49 136.58 120.572 136.753 120.742C136.931 120.912 137.02 121.117 137.02 121.355V121.879H137.074C137.252 121.413 137.559 121.034 137.991 120.742C138.429 120.451 138.913 120.305 139.438 120.305C139.611 120.305 139.793 120.321 139.982 120.358Z" fill="url(#paint7_linear_205_31)"/>
<path d="M159.046 117.209C159.306 117.209 159.532 117.301 159.716 117.486C159.905 117.672 159.997 117.897 159.997 118.157V121.738H160.056C160.337 121.33 160.728 120.989 161.226 120.718C161.729 120.448 162.329 120.315 163.027 120.315C164.012 120.315 164.777 120.581 165.318 121.116C165.864 121.647 166.138 122.376 166.139 123.303V128.207C166.139 128.471 166.041 128.696 165.852 128.882C165.663 129.068 165.437 129.164 165.177 129.164C164.913 129.164 164.687 129.067 164.498 128.882C164.308 128.696 164.211 128.472 164.211 128.207V123.76C164.211 123.124 164.054 122.649 163.735 122.341C163.422 122.033 162.954 121.879 162.337 121.879C161.655 121.879 161.096 122.1 160.658 122.535C160.225 122.97 160.007 123.491 160.007 124.1V128.207C160.007 128.472 159.91 128.696 159.721 128.882C159.537 129.068 159.311 129.164 159.046 129.164C158.787 129.163 158.565 129.067 158.376 128.882C158.187 128.696 158.09 128.472 158.09 128.207V118.157C158.09 117.897 158.186 117.672 158.376 117.486C158.564 117.302 158.788 117.21 159.046 117.209Z" fill="url(#paint8_linear_205_31)"/>
<path d="M190.503 120.14C191.498 120.14 192.267 120.407 192.814 120.941C193.365 121.472 193.643 122.201 193.644 123.128V128.032C193.644 128.297 193.547 128.521 193.357 128.707C193.168 128.892 192.946 128.989 192.687 128.989C192.422 128.989 192.192 128.893 192.003 128.707C191.814 128.522 191.721 128.296 191.721 128.032V123.59C191.721 122.991 191.572 122.528 191.275 122.205C190.983 121.877 190.502 121.714 189.838 121.714C189.167 121.714 188.611 121.923 188.173 122.341C187.734 122.76 187.512 123.293 187.512 123.935V128.032C187.512 128.296 187.419 128.522 187.231 128.707C187.047 128.893 186.821 128.989 186.556 128.989C186.296 128.989 186.071 128.893 185.881 128.707C185.693 128.522 185.6 128.296 185.6 128.032V121.218C185.6 120.97 185.688 120.756 185.867 120.582C186.05 120.402 186.269 120.315 186.517 120.315C186.765 120.315 186.98 120.398 187.158 120.567C187.341 120.737 187.434 120.942 187.435 121.18V121.602H187.483C187.781 121.162 188.192 120.808 188.716 120.543C189.241 120.273 189.838 120.14 190.503 120.14Z" fill="url(#paint9_linear_205_31)"/>
<path d="M253.743 42.7324C281.142 42.7325 300.091 54.3755 300.091 73.2559C300.091 92.1362 284.801 107.441 256.183 107.441H65.9092C37.2905 107.441 22 92.1362 22 73.2559C22 54.3755 40.9495 42.7325 68.3486 42.7324H253.743Z" fill="url(#paint10_linear_205_31)"/>
<path fill-rule="evenodd" clip-rule="evenodd" d="M253.743 42.7324C281.142 42.7325 300.091 54.3755 300.091 73.2559L300.08 74.1377C299.61 92.6105 284.355 107.441 256.183 107.441H65.9092L64.5771 107.431C37.2567 106.97 22.473 92.3172 22.0107 74.1377L22 73.2559C22.0001 54.6706 40.3619 43.0984 67.0703 42.7412L68.3486 42.7324H253.743ZM68.3486 50.7324C55.6477 50.7325 45.7183 53.4509 39.2393 57.6348C33.0106 61.6571 30 66.9226 30 73.2559C30 80.4001 32.8282 86.6715 38.3535 91.291C43.9758 95.9913 52.9815 99.4413 65.9092 99.4414H256.182C269.109 99.4414 278.115 95.9913 283.737 91.291C289.263 86.6715 292.091 80.4003 292.091 73.2559C292.091 66.9225 289.08 61.6571 282.852 57.6348C276.372 53.451 266.443 50.7324 253.742 50.7324H68.3486Z" fill="url(#paint11_linear_205_31)"/>
<defs>
<linearGradient id="paint0_linear_205_31" x1="300.091" y1="209.389" x2="22.0221" y2="211.846" gradientUnits="userSpaceOnUse">
<stop stop-color="#CDCDCD"/>
<stop offset="0.301058" stop-color="#DEDEDE"/>
<stop offset="0.730732" stop-color="#E6E6E6"/>
<stop offset="0.905286" stop-color="#F0F0F0"/>
<stop offset="1" stop-color="#D9D9D9"/>
</linearGradient>
<linearGradient id="paint1_linear_205_31" x1="28.0444" y1="491.904" x2="334.148" y2="466.431" gradientUnits="userSpaceOnUse">
<stop stop-color="#DFDFDF"/>
<stop offset="0.235519" stop-color="#A8A4A4"/>
<stop offset="0.788426" stop-color="#999999"/>
<stop offset="0.87016" stop-color="#CECECE"/>
<stop offset="1" stop-color="#CECECE"/>
</linearGradient>
<linearGradient id="paint2_linear_205_31" x1="22" y1="209.39" x2="317.143" y2="209.39" gradientUnits="userSpaceOnUse">
<stop stop-color="#A3A3A3"/>
<stop offset="1" stop-color="#B4B4B4"/>
</linearGradient>
<linearGradient id="paint3_linear_205_31" x1="22" y1="209.39" x2="317.143" y2="209.39" gradientUnits="userSpaceOnUse">
<stop stop-color="#A3A3A3"/>
<stop offset="1" stop-color="#B4B4B4"/>
</linearGradient>
<linearGradient id="paint4_linear_205_31" x1="22" y1="209.39" x2="317.143" y2="209.39" gradientUnits="userSpaceOnUse">
<stop stop-color="#A3A3A3"/>
<stop offset="1" stop-color="#B4B4B4"/>
</linearGradient>
<linearGradient id="paint5_linear_205_31" x1="22" y1="209.39" x2="317.143" y2="209.39" gradientUnits="userSpaceOnUse">
<stop stop-color="#A3A3A3"/>
<stop offset="1" stop-color="#B4B4B4"/>
</linearGradient>
<linearGradient id="paint6_linear_205_31" x1="22" y1="209.39" x2="317.143" y2="209.39" gradientUnits="userSpaceOnUse">
<stop stop-color="#A3A3A3"/>
<stop offset="1" stop-color="#B4B4B4"/>
</linearGradient>
<linearGradient id="paint7_linear_205_31" x1="22" y1="209.39" x2="317.143" y2="209.39" gradientUnits="userSpaceOnUse">
<stop stop-color="#A3A3A3"/>
<stop offset="1" stop-color="#B4B4B4"/>
</linearGradient>
<linearGradient id="paint8_linear_205_31" x1="22" y1="209.39" x2="317.143" y2="209.39" gradientUnits="userSpaceOnUse">
<stop stop-color="#A3A3A3"/>
<stop offset="1" stop-color="#B4B4B4"/>
</linearGradient>
<linearGradient id="paint9_linear_205_31" x1="22" y1="209.39" x2="317.143" y2="209.39" gradientUnits="userSpaceOnUse">
<stop stop-color="#A3A3A3"/>
<stop offset="1" stop-color="#B4B4B4"/>
</linearGradient>
<linearGradient id="paint10_linear_205_31" x1="161.046" y1="23.8661" x2="161.046" y2="376.049" gradientUnits="userSpaceOnUse">
<stop stop-color="#BEBEBE"/>
<stop offset="1" stop-color="#ACACAC"/>
</linearGradient>
<linearGradient id="paint11_linear_205_31" x1="161.045" y1="107.441" x2="161.045" y2="39.0696" gradientUnits="userSpaceOnUse">
<stop stop-color="#CECECE"/>
<stop offset="1" stop-color="#E9E9E9"/>
</linearGradient>
</defs>
</svg>
