<svg width="24" height="24" viewBox="0 0 24 24" fill="none" xmlns="http://www.w3.org/2000/svg">
<path d="M2 3C2 2.73478 2.10536 2.48043 2.29289 2.29289C2.48043 2.10536 2.73478 2 3 2H21C21.2652 2 21.5196 2.10536 21.7071 2.29289C21.8946 2.48043 22 2.73478 22 3C22 3.26522 21.8946 3.51957 21.7071 3.70711C21.5196 3.89464 21.2652 4 21 4H3C2.73478 4 2.48043 3.89464 2.29289 3.70711C2.10536 3.51957 2 3.26522 2 3ZM12 6C12.2652 6.00006 12.5195 6.10545 12.707 6.293L18.707 12.293C18.8892 12.4816 18.99 12.7342 18.9877 12.9964C18.9854 13.2586 18.8802 13.5094 18.6948 13.6948C18.5094 13.8802 18.2586 13.9854 17.9964 13.9877C17.7342 13.99 17.4816 13.8892 17.293 13.707L13 9.414V21C13 21.2652 12.8946 21.5196 12.7071 21.7071C12.5196 21.8946 12.2652 22 12 22C11.7348 22 11.4804 21.8946 11.2929 21.7071C11.1054 21.5196 11 21.2652 11 21V9.414L6.707 13.707C6.5184 13.8892 6.2658 13.99 6.0036 13.9877C5.7414 13.9854 5.49059 13.8802 5.30518 13.6948C5.11977 13.5094 5.0146 13.2586 5.01233 12.9964C5.01005 12.7342 5.11084 12.4816 5.293 12.293L11.293 6.293C11.4805 6.10545 11.7348 6.00006 12 6Z" fill="black"/>
</svg>
