<svg width="24" height="24" viewBox="0 0 24 24" fill="none" xmlns="http://www.w3.org/2000/svg">
<path d="M11.9873 7C12.2524 7 12.5068 7.10556 12.6943 7.29297L16.6943 11.293C16.8765 11.4815 16.9778 11.7339 16.9756 11.9961C16.9733 12.2582 16.8679 12.5089 16.6826 12.6943C16.4973 12.8797 16.2465 12.985 15.9844 12.9873C15.7222 12.9896 15.4689 12.8892 15.2803 12.707L12.9873 10.4141V16C12.9873 16.2651 12.8818 16.5195 12.6943 16.707C12.5068 16.8944 12.2524 17 11.9873 17C11.7222 16.9999 11.4677 16.8945 11.2803 16.707C11.0929 16.5196 10.9874 16.2651 10.9873 16V10.4141L8.69434 12.707C8.50577 12.889 8.25326 12.9896 7.99121 12.9873C7.72905 12.985 7.47835 12.8797 7.29297 12.6943C7.10762 12.5089 7.00228 12.2582 7 11.9961C6.99775 11.7341 7.09833 11.4815 7.28028 11.293L11.2803 7.29297C11.4677 7.10559 11.7223 7.00011 11.9873 7Z" fill="black"/>
<path fill-rule="evenodd" clip-rule="evenodd" d="M17.2002 2C18.0237 2 18.7016 1.99898 19.252 2.04394C19.814 2.08987 20.3311 2.18827 20.8164 2.43554L21.0918 2.58984C21.7183 2.97413 22.2289 3.52512 22.5645 4.18359C22.8117 4.6689 22.9101 5.18599 22.9561 5.74804C23.001 6.29842 23 6.97631 23 7.7998V16.2002C23 17.0237 23.001 17.7016 22.9561 18.252C22.9159 18.7438 22.8356 19.2011 22.6504 19.6328L22.5645 19.8164C22.2289 20.4749 21.7183 21.0259 21.0918 21.4102L20.8164 21.5645C20.3311 21.8117 19.814 21.9101 19.252 21.9561C18.7016 22.001 18.0237 22 17.2002 22H6.79981C5.97632 22 5.29843 22.001 4.74805 21.9561C4.186 21.9101 3.6689 21.8117 3.1836 21.5645C2.52513 21.2289 1.97413 20.7183 1.58985 20.0918L1.43555 19.8164C1.18828 19.3311 1.08988 18.814 1.04395 18.252C0.99898 17.7016 1 17.0237 1 16.2002V7.7998C1 6.97631 0.99898 6.29842 1.04395 5.74804C1.08988 5.18599 1.18827 4.6689 1.43555 4.18359C1.81902 3.43109 2.43109 2.81901 3.1836 2.43554C3.6689 2.18827 4.186 2.08987 4.74805 2.04394C5.29843 1.99898 5.97632 2 6.79981 2H17.2002ZM6.79981 4C5.94342 4 5.36117 4.00035 4.91113 4.03711C4.47272 4.07293 4.2482 4.13808 4.0918 4.21777C3.71555 4.40951 3.40951 4.71554 3.21778 5.09179C3.13809 5.24819 3.07293 5.47272 3.03711 5.91113C3.00035 6.36117 3 6.94341 3 7.7998V16.2002C3 17.0566 3.00035 17.6388 3.03711 18.0889C3.07293 18.5273 3.13809 18.7518 3.21778 18.9082L3.29492 19.0459C3.48707 19.3591 3.76257 19.6144 4.0918 19.7822C4.2482 19.8619 4.47272 19.9271 4.91113 19.9629C5.36117 19.9996 5.94342 20 6.79981 20H17.2002C18.0566 20 18.6388 19.9996 19.0889 19.9629C19.5273 19.9271 19.7518 19.8619 19.9082 19.7822L20.0459 19.7051C20.3592 19.5129 20.6145 19.2374 20.7822 18.9082L20.8389 18.7754C20.8924 18.6258 20.936 18.4175 20.9629 18.0889C20.9997 17.6388 21 17.0566 21 16.2002V7.7998C21 6.94341 20.9997 6.36117 20.9629 5.91113C20.9271 5.47272 20.8619 5.24819 20.7822 5.09179C20.6145 4.76256 20.3592 4.48706 20.0459 4.29492L19.9082 4.21777C19.7518 4.13808 19.5273 4.07293 19.0889 4.03711C18.6388 4.00035 18.0566 4 17.2002 4H6.79981Z" fill="black"/>
</svg>
