<svg width="24" height="24" viewBox="0 0 24 24" fill="none" xmlns="http://www.w3.org/2000/svg">
<path d="M9 7C9 8.10457 8.10457 9 7 9C5.89543 9 5 8.10457 5 7C5 5.89543 5.89543 5 7 5C8.10457 5 9 5.89543 9 7Z" fill="black"/>
<path d="M9 17C9 18.1046 8.10457 19 7 19C5.89543 19 5 18.1046 5 17C5 15.8954 5.89543 15 7 15C8.10457 15 9 15.8954 9 17Z" fill="black"/>
<path d="M19 7C19 8.10457 18.1046 9 17 9C15.8954 9 15 8.10457 15 7C15 5.89543 15.8954 5 17 5C18.1046 5 19 5.89543 19 7Z" fill="black"/>
<path d="M19 17C19 18.1046 18.1046 19 17 19C15.8954 19 15 18.1046 15 17C15 15.8954 15.8954 15 17 15C18.1046 15 19 15.8954 19 17Z" fill="black"/>
</svg>
