<svg width="24" height="24" viewBox="0 0 24 24" fill="none" xmlns="http://www.w3.org/2000/svg">
<path d="M18.7176 4.78256C19.4986 5.56361 19.4986 6.82994 18.7176 7.61099L14.8285 11.5001L18.7176 15.3892C19.4986 16.1702 19.4986 17.4365 18.7176 18.2176C17.9365 18.9986 16.6702 18.9986 15.8892 18.2176L12.0001 14.3285L8.11099 18.2176C7.32994 18.9986 6.06361 18.9986 5.28256 18.2176C4.50152 17.4365 4.50152 16.1702 5.28256 15.3892L9.17165 11.5001L5.28256 7.61099C4.50152 6.82994 4.50152 5.56361 5.28256 4.78256C6.06361 4.00152 7.32994 4.00152 8.11099 4.78256L12.0001 8.67165L15.8892 4.78256C16.6702 4.00152 17.9365 4.00152 18.7176 4.78256Z" fill="currentColor"/>
</svg>
