<svg width="24" height="24" viewBox="0 0 24 24" fill="none" xmlns="http://www.w3.org/2000/svg">
<path d="M8.863 1.29301C9.00688 1.43679 9.10348 1.62103 9.13993 1.82115C9.17638 2.02126 9.15094 2.22773 9.067 2.41301C8.51414 3.63664 8.22911 4.96428 8.231 6.30701C8.231 7.54966 8.47578 8.78014 8.95135 9.92819C9.42692 11.0762 10.124 12.1194 11.0027 12.998C11.8814 13.8766 12.9246 14.5736 14.0727 15.049C15.2208 15.5245 16.4513 15.7691 17.694 15.769C19.084 15.769 20.401 15.469 21.588 14.933C21.7731 14.8494 21.9794 14.8241 22.1792 14.8606C22.3791 14.8971 22.5631 14.9936 22.7068 15.1372C22.8504 15.2809 22.9469 15.4649 22.9834 15.6648C23.0199 15.8646 22.9946 16.0709 22.911 16.256C22.0028 18.2663 20.5339 19.9718 18.6805 21.168C16.8271 22.3643 14.6679 23.0003 12.462 23C6.132 23 1 17.868 1 11.538C1 6.88801 3.769 2.88601 7.744 1.08801C7.92925 1.00442 8.13558 0.979259 8.33549 1.01588C8.5354 1.05251 8.71941 1.14917 8.863 1.29301ZM6.413 4.26001C5.40375 5.10199 4.58099 6.145 3.99716 7.32256C3.41333 8.50012 3.08123 9.7864 3.02203 11.0994C2.96283 12.4124 3.17784 13.7234 3.65334 14.9487C4.12883 16.174 4.8544 17.2868 5.78378 18.2162C6.71317 19.1456 7.82599 19.8712 9.05131 20.3467C10.2766 20.8222 11.5876 21.0372 12.9006 20.978C14.2136 20.9188 15.4999 20.5867 16.6774 20.0028C17.855 19.419 18.898 18.5963 19.74 17.587C19.076 17.707 18.392 17.769 17.694 17.769C11.364 17.769 6.232 12.637 6.232 6.30701C6.232 5.60901 6.295 4.92501 6.414 4.26101L6.413 4.26001Z" fill="black"/>
</svg>
