<svg width="24" height="24" viewBox="0 0 24 24" fill="none" xmlns="http://www.w3.org/2000/svg">
<path d="M18.293 9.29297C18.6835 8.90245 19.3165 8.90245 19.707 9.29297C20.0976 9.68349 20.0976 10.3165 19.707 10.707L15.1211 15.293C13.9496 16.4643 12.0504 16.4643 10.8789 15.293L10.707 15.1211C10.3165 14.7308 9.68346 14.7308 9.29297 15.1211L6.70703 17.707C6.31651 18.0976 5.68349 18.0976 5.29297 17.707C4.90245 17.3165 4.90245 16.6835 5.29297 16.293L7.87891 13.707C9.05044 12.5357 10.9496 12.5357 12.1211 13.707L12.293 13.8789C12.6835 14.2692 13.3165 14.2692 13.707 13.8789L18.293 9.29297Z" fill="black"/>
<path d="M8.48828 5.84082C8.87875 5.45035 9.51181 5.45047 9.90235 5.84082C11.2002 7.13868 11.2 9.24208 9.90235 10.54C8.6044 11.838 6.50009 11.839 5.20215 10.541C4.81189 10.1506 4.81196 9.51745 5.20215 9.12696C5.59262 8.73649 6.22567 8.7366 6.61621 9.12696C7.13311 9.64385 7.97139 9.64287 8.48828 9.12598C9.00493 8.60907 9.00509 7.7717 8.48828 7.25488C8.09799 6.86441 8.09801 6.23131 8.48828 5.84082Z" fill="black"/>
<path fill-rule="evenodd" clip-rule="evenodd" d="M17.2002 2C18.0237 2 18.7016 1.99898 19.252 2.04395C19.814 2.08988 20.3311 2.18828 20.8164 2.43555L21.0918 2.58985C21.7183 2.97414 22.2289 3.52513 22.5645 4.1836C22.8117 4.6689 22.9101 5.18599 22.9561 5.74805C23.001 6.29843 23 6.97632 23 7.79981V16.2002C23 17.0237 23.001 17.7016 22.9561 18.252C22.9159 18.7438 22.8356 19.2011 22.6504 19.6328L22.5645 19.8164C22.2289 20.4749 21.7183 21.0259 21.0918 21.4102L20.8164 21.5645C20.3311 21.8117 19.814 21.9101 19.252 21.9561C18.7016 22.001 18.0237 22 17.2002 22H6.79981C5.97632 22 5.29843 22.001 4.74805 21.9561C4.18599 21.9101 3.6689 21.8117 3.1836 21.5645C2.52513 21.2289 1.97414 20.7183 1.58985 20.0918L1.43555 19.8164C1.18828 19.3311 1.08988 18.814 1.04395 18.252C0.99898 17.7016 1 17.0237 1 16.2002V7.79981C1 6.97632 0.99898 6.29843 1.04395 5.74805C1.08988 5.18599 1.18827 4.6689 1.43555 4.1836C1.81902 3.43109 2.43109 2.81902 3.1836 2.43555C3.6689 2.18827 4.18599 2.08988 4.74805 2.04395C5.29843 1.99898 5.97632 2 6.79981 2H17.2002ZM6.79981 4C5.94342 4 5.36117 4.00035 4.91113 4.03711C4.47272 4.07293 4.2482 4.13809 4.0918 4.21778C3.71555 4.40951 3.40951 4.71555 3.21778 5.0918C3.13809 5.2482 3.07293 5.47272 3.03711 5.91113C3.00035 6.36117 3 6.94342 3 7.79981V16.2002C3 17.0566 3.00035 17.6388 3.03711 18.0889C3.07293 18.5273 3.13809 18.7518 3.21778 18.9082L3.29492 19.0459C3.48707 19.3592 3.76257 19.6145 4.0918 19.7822C4.2482 19.8619 4.47272 19.9271 4.91113 19.9629C5.36117 19.9997 5.94342 20 6.79981 20H17.2002C18.0566 20 18.6388 19.9997 19.0889 19.9629C19.5273 19.9271 19.7518 19.8619 19.9082 19.7822L20.0459 19.7051C20.3592 19.5129 20.6145 19.2374 20.7822 18.9082L20.8389 18.7754C20.8924 18.6258 20.936 18.4175 20.9629 18.0889C20.9997 17.6388 21 17.0566 21 16.2002V7.79981C21 6.94342 20.9997 6.36117 20.9629 5.91113C20.9271 5.47272 20.8619 5.2482 20.7822 5.0918C20.6145 4.76257 20.3592 4.48707 20.0459 4.29492L19.9082 4.21778C19.7518 4.13809 19.5273 4.07293 19.0889 4.03711C18.6388 4.00035 18.0566 4 17.2002 4H6.79981Z" fill="black"/>
</svg>
