<svg width="78" height="40" viewBox="0 0 78 40" fill="none" xmlns="http://www.w3.org/2000/svg">
<path d="M8.33301 28C9.43758 28 10.333 28.8954 10.333 30C10.333 31.1046 9.43758 32 8.33301 32C7.22855 31.9999 6.33301 31.1045 6.33301 30C6.33301 28.8955 7.22855 28.0001 8.33301 28Z" fill="#D9D9D9"/>
<path d="M20.333 28C21.4376 28 22.333 28.8954 22.333 30C22.333 31.1046 21.4376 32 20.333 32C19.2286 31.9999 18.333 31.1045 18.333 30C18.333 28.8955 19.2286 28.0001 20.333 28Z" fill="#D9D9D9"/>
<path d="M32.333 28C33.4376 28 34.333 28.8954 34.333 30C34.333 31.1046 33.4376 32 32.333 32C31.2286 31.9999 30.333 31.1045 30.333 30C30.333 28.8955 31.2286 28.0001 32.333 28Z" fill="#D9D9D9"/>
<path d="M44.333 28C45.4376 28 46.333 28.8954 46.333 30C46.333 31.1046 45.4376 32 44.333 32C43.2286 31.9999 42.333 31.1045 42.333 30C42.333 28.8955 43.2286 28.0001 44.333 28Z" fill="#D9D9D9"/>
<path d="M56.333 28C57.4376 28 58.333 28.8954 58.333 30C58.333 31.1046 57.4376 32 56.333 32C55.2286 31.9999 54.333 31.1045 54.333 30C54.333 28.8955 55.2286 28.0001 56.333 28Z" fill="#D9D9D9"/>
<path d="M68.333 28C69.4376 28 70.333 28.8954 70.333 30C70.333 31.1046 69.4376 32 68.333 32C67.2286 31.9999 66.333 31.1045 66.333 30C66.333 28.8955 67.2286 28.0001 68.333 28Z" fill="#D9D9D9"/>
<path d="M8.33301 18C9.43758 18 10.333 18.8954 10.333 20C10.333 21.1046 9.43758 22 8.33301 22C7.22855 21.9999 6.33301 21.1045 6.33301 20C6.33301 18.8955 7.22855 18.0001 8.33301 18Z" fill="#D9D9D9"/>
<path d="M20.333 18C21.4376 18 22.333 18.8954 22.333 20C22.333 21.1046 21.4376 22 20.333 22C19.2286 21.9999 18.333 21.1045 18.333 20C18.333 18.8955 19.2286 18.0001 20.333 18Z" fill="#D9D9D9"/>
<path d="M32.333 18C33.4376 18 34.333 18.8954 34.333 20C34.333 21.1046 33.4376 22 32.333 22C31.2286 21.9999 30.333 21.1045 30.333 20C30.333 18.8955 31.2286 18.0001 32.333 18Z" fill="#D9D9D9"/>
<path d="M44.333 18C45.4376 18 46.333 18.8954 46.333 20C46.333 21.1046 45.4376 22 44.333 22C43.2286 21.9999 42.333 21.1045 42.333 20C42.333 18.8955 43.2286 18.0001 44.333 18Z" fill="#D9D9D9"/>
<path d="M56.333 18C57.4376 18 58.333 18.8954 58.333 20C58.333 21.1046 57.4376 22 56.333 22C55.2286 21.9999 54.333 21.1045 54.333 20C54.333 18.8955 55.2286 18.0001 56.333 18Z" fill="#D9D9D9"/>
<path d="M68.333 18C69.4376 18 70.333 18.8954 70.333 20C70.333 21.1046 69.4376 22 68.333 22C67.2286 21.9999 66.333 21.1045 66.333 20C66.333 18.8955 67.2286 18.0001 68.333 18Z" fill="#D9D9D9"/>
<path d="M8.33301 8C9.43758 8 10.333 8.89543 10.333 10C10.333 11.1046 9.43758 12 8.33301 12C7.22855 11.9999 6.33301 11.1045 6.33301 10C6.33301 8.89551 7.22855 8.00013 8.33301 8Z" fill="#D9D9D9"/>
<path d="M20.333 8C21.4376 8 22.333 8.89543 22.333 10C22.333 11.1046 21.4376 12 20.333 12C19.2286 11.9999 18.333 11.1045 18.333 10C18.333 8.89551 19.2286 8.00013 20.333 8Z" fill="#D9D9D9"/>
<path d="M32.333 8C33.4376 8 34.333 8.89543 34.333 10C34.333 11.1046 33.4376 12 32.333 12C31.2286 11.9999 30.333 11.1045 30.333 10C30.333 8.89551 31.2286 8.00013 32.333 8Z" fill="#D9D9D9"/>
<path d="M44.333 8C45.4376 8 46.333 8.89543 46.333 10C46.333 11.1046 45.4376 12 44.333 12C43.2286 11.9999 42.333 11.1045 42.333 10C42.333 8.89551 43.2286 8.00013 44.333 8Z" fill="#D9D9D9"/>
<path d="M56.333 8C57.4376 8 58.333 8.89543 58.333 10C58.333 11.1046 57.4376 12 56.333 12C55.2286 11.9999 54.333 11.1045 54.333 10C54.333 8.89551 55.2286 8.00013 56.333 8Z" fill="#D9D9D9"/>
<path d="M68.333 8C69.4376 8 70.333 8.89543 70.333 10C70.333 11.1046 69.4376 12 68.333 12C67.2286 11.9999 66.333 11.1045 66.333 10C66.333 8.89551 67.2286 8.00013 68.333 8Z" fill="#D9D9D9"/>
</svg>
