<svg width="78" height="40" viewBox="0 0 78 40" fill="none" xmlns="http://www.w3.org/2000/svg">
<path d="M17.3631 25.2238C17.661 24.9258 18.1462 24.9258 18.4441 25.2238C18.7411 25.5218 18.7416 26.0052 18.4441 26.3029L15.7449 29.0002L18.4441 31.6974L18.5408 31.8166C18.7362 32.1125 18.7043 32.5158 18.4441 32.7765C18.1833 33.0373 17.7783 33.0699 17.4822 32.8742L17.3631 32.7765L14.6668 30.0783L11.9695 32.7765L11.8504 32.8742C11.5543 33.0698 11.1511 33.0372 10.8904 32.7765C10.6298 32.5157 10.5971 32.1127 10.7927 31.8166L10.8904 31.6974L13.5877 29.0002L10.8904 26.3029C10.5926 26.0051 10.593 25.5218 10.8904 25.2238C11.1883 24.9258 11.6716 24.9258 11.9695 25.2238L14.6668 27.921L17.3631 25.2238Z" fill="#CDCDCD"/>
<path d="M41.3631 25.2238C41.661 24.9258 42.1462 24.9258 42.4441 25.2238C42.7411 25.5218 42.7416 26.0052 42.4441 26.3029L39.7449 29.0002L42.4441 31.6974L42.5408 31.8166C42.7362 32.1125 42.7043 32.5158 42.4441 32.7765C42.1833 33.0373 41.7783 33.0699 41.4822 32.8742L41.3631 32.7765L38.6668 30.0783L35.9695 32.7765L35.8504 32.8742C35.5543 33.0698 35.1511 33.0372 34.8904 32.7765C34.6298 32.5157 34.5971 32.1127 34.7927 31.8166L34.8904 31.6974L37.5877 29.0002L34.8904 26.3029C34.5926 26.0051 34.593 25.5218 34.8904 25.2238C35.1883 24.9258 35.6716 24.9258 35.9695 25.2238L38.6668 27.921L41.3631 25.2238Z" fill="#CDCDCD"/>
<path d="M65.3631 25.2238C65.661 24.9258 66.1462 24.9258 66.4441 25.2238C66.7411 25.5218 66.7416 26.0052 66.4441 26.3029L63.7449 29.0002L66.4441 31.6974L66.5408 31.8166C66.7362 32.1125 66.7043 32.5158 66.4441 32.7765C66.1833 33.0373 65.7783 33.0699 65.4822 32.8742L65.3631 32.7765L62.6668 30.0783L59.9695 32.7765L59.8504 32.8742C59.5543 33.0698 59.1511 33.0372 58.8904 32.7765C58.6298 32.5157 58.5971 32.1127 58.7927 31.8166L58.8904 31.6974L61.5877 29.0002L58.8904 26.3029C58.5926 26.0051 58.593 25.5218 58.8904 25.2238C59.1883 24.9258 59.6716 24.9258 59.9695 25.2238L62.6668 27.921L65.3631 25.2238Z" fill="#CDCDCD"/>
<path d="M17.3631 7.22378C17.661 6.92581 18.1462 6.92581 18.4441 7.22378C18.7411 7.52177 18.7416 8.00519 18.4441 8.30289L15.7449 11.0002L18.4441 13.6974L18.5408 13.8166C18.7362 14.1125 18.7043 14.5158 18.4441 14.7765C18.1833 15.0373 17.7783 15.0699 17.4822 14.8742L17.3631 14.7765L14.6668 12.0783L11.9695 14.7765L11.8504 14.8742C11.5543 15.0698 11.1511 15.0372 10.8904 14.7765C10.6298 14.5157 10.5971 14.1127 10.7927 13.8166L10.8904 13.6974L13.5877 11.0002L10.8904 8.30289C10.5926 8.00508 10.593 7.5218 10.8904 7.22378C11.1883 6.92581 11.6716 6.92581 11.9695 7.22378L14.6668 9.92105L17.3631 7.22378Z" fill="#CDCDCD"/>
<path d="M41.3631 7.22378C41.661 6.92581 42.1462 6.92581 42.4441 7.22378C42.7411 7.52177 42.7416 8.00519 42.4441 8.30289L39.7449 11.0002L42.4441 13.6974L42.5408 13.8166C42.7362 14.1125 42.7043 14.5158 42.4441 14.7765C42.1833 15.0373 41.7783 15.0699 41.4822 14.8742L41.3631 14.7765L38.6668 12.0783L35.9695 14.7765L35.8504 14.8742C35.5543 15.0698 35.1511 15.0372 34.8904 14.7765C34.6298 14.5157 34.5971 14.1127 34.7927 13.8166L34.8904 13.6974L37.5877 11.0002L34.8904 8.30289C34.5926 8.00508 34.593 7.5218 34.8904 7.22378C35.1883 6.92581 35.6716 6.92581 35.9695 7.22378L38.6668 9.92105L41.3631 7.22378Z" fill="#CDCDCD"/>
<path d="M65.3631 7.22378C65.661 6.92581 66.1462 6.92581 66.4441 7.22378C66.7411 7.52177 66.7416 8.00519 66.4441 8.30289L63.7449 11.0002L66.4441 13.6974L66.5408 13.8166C66.7362 14.1125 66.7043 14.5158 66.4441 14.7765C66.1833 15.0373 65.7783 15.0699 65.4822 14.8742L65.3631 14.7765L62.6668 12.0783L59.9695 14.7765L59.8504 14.8742C59.5543 15.0698 59.1511 15.0372 58.8904 14.7765C58.6298 14.5157 58.5971 14.1127 58.7927 13.8166L58.8904 13.6974L61.5877 11.0002L58.8904 8.30289C58.5926 8.00508 58.593 7.5218 58.8904 7.22378C59.1883 6.92581 59.6716 6.92581 59.9695 7.22378L62.6668 9.92105L65.3631 7.22378Z" fill="#CDCDCD"/>
</svg>
